<?xml version="1.0" encoding="iso-8859-1"?>
<!-- Generator: Adobe Illustrator 19.0.0, SVG Export Plug-In . SVG Version: 6.00 Build 0)  -->
<svg version="1.1" id="Capa_1" xmlns="http://www.w3.org/2000/svg" xmlns:xlink="http://www.w3.org/1999/xlink" x="0px" y="0px"
	 viewBox="0 0 512.104 512.104" style="enable-background:new 0 0 512.104 512.104;" xml:space="preserve">
<g>
	<g>
		<g>
			<path d="M484.377,111.367c-9.01-18.141-26.075-30.947-46.012-34.526c6.451-7.231,9.652-16.792,8.855-26.449
				c-0.797-9.657-5.522-18.564-13.07-24.64l-0.256-0.154c-9.745-7.779-22.856-9.878-34.543-5.53
				c-1.434-4.26-3.818-8.138-6.972-11.341c-7.261-7.263-17.752-10.273-27.759-7.966c-10.008,2.307-18.121,9.607-21.47,19.315
				c-11.719-4.4-24.89-2.302-34.662,5.521l-0.196,0.171c-7.849,6.36-12.631,15.751-13.156,25.84
				c-0.526,10.088,3.254,19.926,10.4,27.067l7.757,7.765c-27.656,27.23-39.927,78.455-45.167,112.273
				c-1.014,6.462-4.315,12.346-9.301,16.58c-8.194,6.966-19.688,8.541-29.454,4.035c-9.766-4.506-16.027-14.272-16.046-25.027
				v-32.171c-1.094-37.442-13.642-73.649-35.951-103.74c-8.665-12.281-22.747-19.597-37.777-19.627
				c-3.721-0.009-7.428,0.449-11.034,1.365c-22.519,5.618-37.322,27.137-34.517,50.176c-19.77-9.666-43.619-3.952-56.862,13.624
				s-12.161,42.075,2.582,58.414l-10.146,25.719c-9.73,25.149-0.977,53.69,21.18,69.06l-2.261,11.281
				c-4.455,22.253,0.129,45.363,12.74,64.23c15.953,23.987,35.624,45.279,58.274,63.078c13.894,10.78,29.153,19.675,45.38,26.453
				c13.642,5.461,27.955,9.069,42.556,10.726c11.965,13.887,19.627,30.957,22.05,49.126c-17.537-3.75-35.745,2.122-47.787,15.411
				c-2.218,2.143-3.108,5.315-2.327,8.299c0.781,2.983,3.111,5.313,6.094,6.094c2.984,0.781,6.156-0.109,8.299-2.327
				c19.772-19.78,38.4-8.772,40.482-7.433c0.128,0.077,0.273,0.085,0.401,0.162s0.137,0.111,0.213,0.162
				c0.706,0.391,1.465,0.678,2.253,0.853c0.331,0.048,0.664,0.08,0.998,0.094c0.63,0.068,1.265,0.068,1.894,0
				c0.348-0.035,0.693-0.095,1.033-0.179c0.905-0.2,1.77-0.549,2.56-1.033c0.853-0.546,21.436-13.184,49.954,8.209
				c2.439,1.829,5.668,2.218,8.472,1.021c2.804-1.198,4.755-3.8,5.12-6.827c0.365-3.027-0.913-6.018-3.352-7.847
				c-15.692-13.456-36.836-18.671-56.986-14.054c-1.854-16.981-7.538-33.32-16.623-47.787c12.45,0.751,24.747,1.203,36.693,1.203
				c2.79,0,5.504-0.111,8.26-0.154l6.75,26.999c0.628,2.502,2.355,4.586,4.697,5.668c2.342,1.082,5.048,1.047,7.361-0.096
				c1.178-0.58,29.09-13.901,49.92,6.921c3.348,3.234,8.671,3.188,11.962-0.104c3.292-3.292,3.338-8.614,0.104-11.962
				c-15.76-15.53-38.918-20.869-59.887-13.807l-3.541-14.165c4.625-0.222,9.267-0.427,13.773-0.768
				c32.179-2.56,65.707-7.373,92.809-25.395c24.439-16.333,38.195-46.985,37.76-84.062c-1.429-40.709-11.089-80.707-28.399-117.581
				c12.196-11.333,18.83-27.431,18.159-44.066c5.069-22.69,26.223-27.238,42.931-26.837c5.83,0.023,11.248-3.003,14.285-7.979
				C487.085,123.387,487.276,116.814,484.377,111.367z M409.771,160.391c-0.017,0.298-0.017,0.598,0,0.896
				c-0.076,0.278-0.136,0.56-0.179,0.845c0,19.541-9.011,34.133-17.067,34.133s-17.067-14.592-17.067-34.133
				c0-19.541,9.011-34.133,17.067-34.133c4.713,0,8.533-3.82,8.533-8.533s-3.82-8.533-8.533-8.533
				c-19.14,0-34.133,22.494-34.133,51.2c0,28.706,14.933,51.098,34.014,51.2c16.642,35.078,25.974,73.176,27.426,111.974
				c0.179,14.771-2.415,51.123-30.157,69.675c-23.851,15.855-54.801,20.224-84.659,22.579c-6.827,0.521-13.824,0.853-20.932,1.101
				c-1.462-0.523-3.043-0.618-4.557-0.273c-0.262,0.106-0.519,0.225-0.768,0.358c-17.254,0.384-35.174,0-53.666-1.28
				c-18.378-0.688-36.513-4.438-53.658-11.093c-14.835-6.204-28.783-14.344-41.481-24.209
				c-21.204-16.69-39.616-36.649-54.545-59.127c-10.057-15.07-13.705-33.522-10.138-51.285l1.033-5.12l23.194,13.79
				c4.049,2.406,9.281,1.077,11.691-2.97c2.406-4.049,1.077-9.281-2.97-11.691l-34.432-20.48
				c-17.816-10.151-25.578-31.77-18.287-50.935l8.397-21.291l44.681,22.357c2.729,1.363,5.977,1.166,8.521-0.515
				c2.544-1.682,3.998-4.593,3.814-7.637c-0.184-3.044-1.978-5.759-4.707-7.122l-45.184-22.63
				c-7.68-3.841-13.257-10.895-15.222-19.254s-0.115-17.159,5.05-24.019c4.827-6.433,12.116-10.564,20.115-11.401
				s15.985,1.696,22.04,6.99l37.871,33.126c2.248,2.258,5.567,3.075,8.606,2.12c3.039-0.956,5.293-3.525,5.845-6.663
				c0.552-3.138-0.69-6.322-3.221-8.257l-23.817-20.847l-4.113-10.837c-0.102-0.273-0.222-0.538-0.35-0.802
				c-3.935-7.846-4.086-17.056-0.409-25.026c3.676-7.97,10.78-13.834,19.302-15.934c11.631-2.668,23.728,1.887,30.711,11.563
				c20.265,27.206,31.72,59.961,32.828,93.867v32.171c-0.09,23.353,17.835,42.829,41.116,44.672s44.047-14.572,47.63-37.649
				c5.12-33.05,21.786-110.515,65.937-116.053c4.675-0.59,7.987-4.857,7.398-9.532c-0.259-2.256-1.416-4.312-3.21-5.704
				s-4.073-2.003-6.322-1.694c-7.724,1.021-15.157,3.618-21.837,7.629l-9.387-9.387c-3.734-3.742-5.698-8.897-5.401-14.175
				s2.825-10.18,6.955-13.481l0.171-0.137c7.406-5.817,17.991-5.179,24.644,1.485l8.422,8.422c3.348,3.234,8.671,3.188,11.962-0.104
				c3.292-3.292,3.338-8.614,0.104-11.962l-6.05-6.033v-0.734c0-7.069,5.731-12.8,12.8-12.8s12.8,5.731,12.8,12.8
				c0.055,0.638,0.181,1.267,0.375,1.877c-1.212,3.733,0.304,7.809,3.66,9.843c3.356,2.034,7.671,1.492,10.42-1.31
				c6.654-6.654,17.227-7.295,24.636-1.493l0.179,0.145c4.13,3.306,6.656,8.215,6.946,13.497c0.29,5.282-1.684,10.438-5.427,14.176
				l-12.689,12.698c-0.184,0.247-0.355,0.503-0.512,0.768c-0.375,0.454-0.701,0.946-0.973,1.468
				c-0.238,0.475-0.426,0.972-0.563,1.485c-0.159,0.514-0.262,1.043-0.307,1.579c-0.042,0.583-0.025,1.169,0.051,1.749
				c-0.017,0.307-0.017,0.615,0,0.922c0.051,0.213,0.205,0.367,0.265,0.572c0.184,0.551,0.427,1.08,0.725,1.579
				c0.259,0.499,0.571,0.968,0.93,1.399c0.145,0.171,0.196,0.384,0.358,0.546c0.251,0.189,0.513,0.363,0.785,0.521
				c0.445,0.369,0.929,0.689,1.442,0.956c0.48,0.24,0.983,0.432,1.502,0.572c0.511,0.158,1.037,0.261,1.57,0.307
				c0.25,0.061,0.504,0.11,0.759,0.145c0.334-0.044,0.664-0.11,0.99-0.196c0.315,0.021,0.632,0.021,0.947,0
				c20.511-3.353,40.782,7.199,49.801,25.924C436.958,119.269,415.385,133.886,409.771,160.391z"/>
			<path d="M298.658,247.465c-4.713,0-8.533,3.82-8.533,8.533c0,4.713,3.82,8.533,8.533,8.533
				c17.547-0.754,34.428,6.78,45.585,20.344c8.147,11.605,10.062,26.475,5.12,39.765c-9.566,30.575-44.134,42.547-58.556,46.268
				c-50.961,13.141-116.42-5.06-137.796-58.359c-1.758-4.374-6.728-6.494-11.102-4.736c-4.373,1.758-6.494,6.728-4.736,11.102
				c19.831,49.408,71.398,73.105,120.951,73.105c12.449,0.029,24.852-1.51,36.915-4.582c36.326-9.387,62.054-30.413,70.579-57.702
				c6.554-18.471,3.708-38.976-7.629-54.963C343.624,256.825,321.634,246.704,298.658,247.465z"/>
			<path d="M148.915,263.636l-0.043,0.043c4.839-2.153,10.065-3.3,15.36-3.371c10.777-0.038,20.463,6.568,24.363,16.614
				c19.234,38.366,65.442,38.81,67.396,38.81c4.713,0,8.533-3.82,8.533-8.533s-3.82-8.533-8.533-8.533
				c-0.375,0-37.547-0.341-52.053-29.414c-5.179-11.413-14.879-20.151-26.768-24.115c-11.889-3.964-24.892-2.795-35.884,3.226
				c-4.218,2.107-5.93,7.234-3.823,11.452C139.57,264.031,144.697,265.742,148.915,263.636z"/>
		</g>
	</g>
</g>
<g>
</g>
<g>
</g>
<g>
</g>
<g>
</g>
<g>
</g>
<g>
</g>
<g>
</g>
<g>
</g>
<g>
</g>
<g>
</g>
<g>
</g>
<g>
</g>
<g>
</g>
<g>
</g>
<g>
</g>
</svg>
